<?xml version="1.0" encoding="UTF-8" standalone="no"?>
<svg
   xmlns:dc="http://purl.org/dc/elements/1.1/"
   xmlns:cc="http://creativecommons.org/ns#"
   xmlns:rdf="http://www.w3.org/1999/02/22-rdf-syntax-ns#"
   xmlns:svg="http://www.w3.org/2000/svg"
   xmlns="http://www.w3.org/2000/svg"
   width="10"
   height="10"
   viewBox="0 0 15 15"
   version="1.1"
   id="svg-claimrev">
  <title
     id="title-claimrev">claimrev</title>
  <defs
     id="defs-claimrev" />
  <metadata
     id="metadata-claimrev">
    <rdf:RDF>
      <cc:Work
         rdf:about="">
        <dc:format>image/svg+xml</dc:format>
        <dc:type
           rdf:resource="http://purl.org/dc/dcmitype/StillImage" />
        <dc:title>claimrev</dc:title>
      </cc:Work>
    </rdf:RDF>
  </metadata>
  <g fill="none" stroke="black">
    <circle
        style="fill:#ffffff;stroke-width:0.88999999;stroke-miterlimit:4;stroke-dasharray:none;stroke-opacity:1"
        r="7.0845399"
        cy="7.5295401"
        cx="7.5295401"
        />
    <path
        d="M 4.7105021,12.27189 A 5.6332297,5.5546689 0 0 1 2.1387409,6.0002407 5.6332297,5.5546689 0 0 1 7.6186207,1.9299827 5.6332297,5.5546689 0 0 1 13.022173,6.0982795 5.6332297,5.5546689 0 0 1 10.334641,12.322553"
        style="fill:none;stroke-width:0.74400002;stroke-miterlimit:4;stroke-dasharray:none;stroke-opacity:1" 
        />
    <path
        d="M 5.5097637,10.855594 A 4.1151142,4.05372 0 0 1 3.5924257,6.2957898 4.1151142,4.05372 0 0 1 7.5673209,3.2912498 4.1151142,4.05372 0 0 1 11.542216,6.29579 4.1151142,4.05372 0 0 1 9.6248778,10.855594"
        style="fill:none;stroke-width:0.74400002;stroke-miterlimit:4;stroke-dasharray:none;stroke-opacity:1"
        />
    <path
        d="m 4.3847274,12.124352 c 0.799261,-1.416301 0.799261,-1.416301 0.799261,-1.416301 v 0 0"
        style="fill:none;stroke-width:0.74200004;stroke-linecap:butt;stroke-linejoin:miter;stroke-miterlimit:4;stroke-dasharray:none;stroke-opacity:1" 
        />
    <path
        style="fill:none;stroke-width:0.74200004;stroke-linecap:butt;stroke-linejoin:miter;stroke-miterlimit:4;stroke-dasharray:none;stroke-opacity:1"
        d="m 2.0900494,7.3974615 c 1.573587,-0.038 1.573587,-0.038 1.573587,-0.038 v 0 0"
        />
    <path
        d="m 3.6867804,3.3240515 c 1.138404,1.13533 1.138404,1.13533 1.138404,1.13533 v 0 0"
        style="fill:none;stroke-width:0.74200004;stroke-linecap:butt;stroke-linejoin:miter;stroke-miterlimit:4;stroke-dasharray:none;stroke-opacity:1" 
        />
    <path
        style="fill:none;stroke-width:0.74200004;stroke-linecap:butt;stroke-linejoin:miter;stroke-miterlimit:4;stroke-dasharray:none;stroke-opacity:1"
        d="m 11.473461,3.2907415 c -1.086983,1.18904 -1.086983,1.18904 -1.086983,1.18904 v 0 0"
        />
    <path
        d="m 13.102079,7.3503615 c -1.573586,0.038 -1.573586,0.038 -1.573586,0.038 v 0 0"
        style="fill:none;stroke-width:0.74200004;stroke-linecap:butt;stroke-linejoin:miter;stroke-miterlimit:4;stroke-dasharray:none;stroke-opacity:1" 
        />
    <path
        style="fill:none;stroke-width:0.74200004;stroke-linecap:butt;stroke-linejoin:miter;stroke-miterlimit:4;stroke-dasharray:none;stroke-opacity:1"
        d="m 10.6532,12.169231 c -0.7174596,-1.46329 -0.7174596,-1.46329 -0.7174596,-1.46329 v 0 0" 
        />
    <circle
        cx="7.5295401"
        cy="7.5295401"
        r="0.64372069"
        style="fill:none;stroke-width:0;stroke-miterlimit:4;stroke-dasharray:none;stroke-opacity:1" 
        />
    <path
        d="m 9.2509684,4.5393215 c 0,0 -2.156367,2.71643 -2.279571,2.96251 -0.06944,0.33843 0.02038,0.68462 0.188514,0.76332 0.182379,0.0693 0.594567,-0.0802 0.772117,-0.22889 0.167623,-0.22431 1.31894,-3.49694 1.31894,-3.49694 z"
        style="fill-opacity:1;stroke-width:0.62900001;stroke-linecap:square;stroke-linejoin:round;stroke-miterlimit:4;stroke-dasharray:none;stroke-opacity:1" 
        />
    </g>
</svg>