<?xml version="1.0" encoding="UTF-8" standalone="no"?>
<svg
   xmlns:dc="http://purl.org/dc/elements/1.1/"
   xmlns:cc="http://creativecommons.org/ns#"
   xmlns:rdf="http://www.w3.org/1999/02/22-rdf-syntax-ns#"
   xmlns:svg="http://www.w3.org/2000/svg"
   xmlns="http://www.w3.org/2000/svg"
   width="10"
   height="10"
   viewBox="0 0 15 15"
   version="1.1"
   id="svg-revCred">
  <title
     id="title-revCred">revCred</title>
  <defs
     id="defs-revCred" />
  <metadata
     id="metadata-revCred">
    <rdf:RDF>
      <cc:Work
         rdf:about="">
        <dc:format>image/svg+xml</dc:format>
        <dc:type
           rdf:resource="http://purl.org/dc/dcmitype/StillImage" />
        <dc:title>revCred</dc:title>
      </cc:Work>
    </rdf:RDF>
  </metadata>
    <path
        d="m 1.5965702,1.0453127 c -0.292471,0 -0.527924,0.23712 -0.527924,0.53168 V 13.908173 c 0,0.29448 0.235453,0.53154 0.527924,0.53154 H 13.935149 c 0.292629,0 0.528108,-0.23706 0.528108,-0.53154 V 1.5769927 c 0,-0.29445 -0.235479,-0.53157 -0.528108,-0.53157 H 1.5965702 Z"
        style="fill:none;stroke:#ffffff;stroke-width:2.1497395;stroke-linecap:round;stroke-linejoin:round"
        />
    <path
        d="m 1.5965702,1.0453127 c -0.292471,0 -0.527924,0.23712 -0.527924,0.53168 V 13.908173 c 0,0.29448 0.235453,0.53154 0.527924,0.53154 H 13.935149 c 0.292629,0 0.528108,-0.23706 0.528108,-0.53154 V 1.5769927 c 0,-0.29445 -0.235479,-0.53157 -0.528108,-0.53157 H 1.5965702 Z"
        style="fill:#ffffff;fill-rule:evenodd;stroke:#000000;stroke-width:0.82682288;stroke-linecap:round;stroke-linejoin:round"
        />
    <path
        style="fill:none;stroke:#000000;stroke-width:1.32293558;stroke-linecap:round;stroke-linejoin:round"
        d="m 3.3003132,6.2844027 2.867924,-0.0453" />
    <path
        style="fill:none;stroke:#000000;stroke-width:1.32293558;stroke-linecap:round;stroke-linejoin:round"
        d="m 3.3003132,9.2459327 h 2.840827" />
    <path
        style="fill:none;stroke:#000000;stroke-width:1.3229146;stroke-linecap:round;stroke-linejoin:round"
        d="M 3.3005062,12.207373 H 12.231625" />
    <path
        d="M 7.6610052,5.0225927 V 10.606903 H 13.245454 V 5.0225927 l -5.5844488,-3e-5 z m 0.91111,0.80288 H 12.334199 V 9.8085532 H 8.5721152 Z"
        style="stroke-width:0.14434576" />
    <path
        d="m 9.3626972,6.6358327 0.8457218,2.43078 3.081638,-4.20133"
        style="fill:none;stroke:#808000;stroke-width:1.29911196" />
    <text
        style="font-style:normal;font-variant:normal;font-weight:bold;font-stretch:semi-condensed;font-size:3.76272798px;line-height:1.25;font-family:'DejaVu Sans';-inkscape-font-specification:'DejaVu Sans, Bold Semi-Condensed';font-variant-ligatures:normal;font-variant-caps:normal;font-variant-numeric:normal;font-feature-settings:normal;text-align:start;letter-spacing:0px;word-spacing:0px;writing-mode:lr-tb;text-anchor:start;fill:#000000;fill-opacity:1;stroke:none;stroke-width:0.09407043"
        x="2.5291927"
        y="4.5527501"
        id="claim-text-svg">
        <tspan
        x="2.5291927"
        y="4.5527501"
        style="font-style:normal;font-variant:normal;font-weight:bold;font-stretch:semi-condensed;font-size:3.76272798px;font-family:'DejaVu Sans';-inkscape-font-specification:'DejaVu Sans, Bold Semi-Condensed';font-variant-ligatures:normal;font-variant-caps:normal;font-variant-numeric:normal;font-feature-settings:normal;text-align:start;writing-mode:lr-tb;text-anchor:start;stroke-width:0.09407043"
        >
        Claim
        </tspan>
    </text>
</svg>