<?xml version="1.0" encoding="UTF-8" standalone="no"?>
<svg
   xmlns:dc="http://purl.org/dc/elements/1.1/"
   xmlns:cc="http://creativecommons.org/ns#"
   xmlns:rdf="http://www.w3.org/1999/02/22-rdf-syntax-ns#"
   xmlns:svg="http://www.w3.org/2000/svg"
   xmlns="http://www.w3.org/2000/svg"
   width="10"
   height="10"
   viewBox="0 0 15 15"
   version="1.1"
   id="svg-sentence-pair">
  <title
     id="title-sentence-pair">sentence-pair</title>
  <defs
     id="defs-sentence-pair" />
  <metadata
     id="metadata-sentence-pair">
    <rdf:RDF>
      <cc:Work
         rdf:about="">
        <dc:format>image/svg+xml</dc:format>
        <dc:type
           rdf:resource="http://purl.org/dc/dcmitype/StillImage" />
        <dc:title>sentence-pair</dc:title>
      </cc:Work>
    </rdf:RDF>
    </metadata>
    <path
        style="fill:#ffffff;fill-rule:evenodd;stroke:#000000;stroke-width:0.82682288;stroke-linecap:round;stroke-linejoin:round"
        d="m 0.94133541,0.41341144 c -0.29247097,0 -0.52792397,0.0849 -0.52792397,0.19035 V 5.0185514 c 0,0.10543 0.235453,0.1903 0.52792397,0.1903 H 13.279914 c 0.292629,0 0.528108,-0.0849 0.528108,-0.1903 V 0.60376144 c 0,-0.10542 -0.235479,-0.19031 -0.528108,-0.19031 H 0.94133541 Z" />
    <path
        d="M 2.6450124,2.8111314 H 11.576422"
        style="fill:none;stroke:#000000;stroke-width:1.32291102;stroke-linecap:round;stroke-linejoin:round"
        />
    <path
        d="m 0.94133541,5.7050783 c -0.29247097,0 -0.52792397,0.0849 -0.52792397,0.19035 v 4.4147907 c 0,0.10543 0.235453,0.1903 0.52792397,0.1903 H 13.279914 c 0.292629,0 0.528108,-0.0849 0.528108,-0.1903 V 5.8954283 c 0,-0.10542 -0.235479,-0.19031 -0.528108,-0.19031 H 0.94133541 Z"
        style="fill:#ffffff;fill-rule:evenodd;stroke:#000000;stroke-width:0.82682288;stroke-linecap:round;stroke-linejoin:round"
        />
    <path
        style="fill:none;stroke:#000000;stroke-width:1.32291102;stroke-linecap:round;stroke-linejoin:round"
        d="M 2.6450124,8.1027984 H 11.576422" />
</svg>