<?xml version="1.0" encoding="UTF-8" standalone="no"?>
<svg
   xmlns:dc="http://purl.org/dc/elements/1.1/"
   xmlns:cc="http://creativecommons.org/ns#"
   xmlns:rdf="http://www.w3.org/1999/02/22-rdf-syntax-ns#"
   xmlns:svg="http://www.w3.org/2000/svg"
   xmlns="http://www.w3.org/2000/svg"
   width="10"
   height="10"
   viewBox="0 0 15 15"
   version="1.1"
   id="svg-thing">
  <title
     id="title-thing">thing</title>
  <defs
     id="defs-thing" />
  <metadata
     id="metadata-thing">
    <rdf:RDF>
      <cc:Work
         rdf:about="">
        <dc:format>image/svg+xml</dc:format>
        <dc:type
           rdf:resource="http://purl.org/dc/dcmitype/StillImage" />
        <dc:title>thing</dc:title>
      </cc:Work>
    </rdf:RDF>
  </metadata>
  <path
     d="m 1.6361987,1.1082787 c -0.29247,0 -0.52792,0.23712 -0.52792,0.53168 V 13.971129 c 0,0.29448 0.23545,0.53155 0.52792,0.53155 H 13.974779 c 0.29263,0 0.52811,-0.23707 0.52811,-0.53155 V 1.6399587 c 0,-0.29445 -0.23548,-0.53157 -0.52811,-0.53157 H 1.6361987 Z"
     style="fill:none;stroke:#ffffff;stroke-width:2.1497395;stroke-linecap:round;stroke-linejoin:round"
     />
  <path
     d="m 1.6361987,1.1082787 c -0.29247,0 -0.52792,0.23712 -0.52792,0.53168 V 13.971129 c 0,0.29448 0.23545,0.53155 0.52792,0.53155 H 13.974779 c 0.29263,0 0.52811,-0.23707 0.52811,-0.53155 V 1.6399587 c 0,-0.29445 -0.23548,-0.53157 -0.52811,-0.53157 H 1.6361987 Z"
     style="fill:#ffffff;fill-rule:evenodd;stroke:#000000;stroke-width:0.82682288;stroke-linecap:round;stroke-linejoin:round"
     />
  </svg>