<?xml version="1.0" encoding="UTF-8" standalone="no"?>
<svg
   xmlns:dc="http://purl.org/dc/elements/1.1/"
   xmlns:cc="http://creativecommons.org/ns#"
   xmlns:rdf="http://www.w3.org/1999/02/22-rdf-syntax-ns#"
   xmlns:svg="http://www.w3.org/2000/svg"
   xmlns="http://www.w3.org/2000/svg"
   width="10"
   height="10"
   viewBox="0 0 15 15"
   version="1.1"
   id="svg-tweet">
  <title
     id="title-tweet">tweet</title>
  <defs
     id="defs-tweet" />
  <metadata
     id="metadata-tweet">
    <rdf:RDF>
      <cc:Work
         rdf:about="">
        <dc:format>image/svg+xml</dc:format>
        <dc:type
           rdf:resource="http://purl.org/dc/dcmitype/StillImage" />
        <dc:title>tweet</dc:title>
      </cc:Work>
    </rdf:RDF>
  </metadata>
    <path
        d="m 13.077369,6.5443206 c 0.0043,0.05629 0.0043,0.1125811 0.0043,0.1688631 0,1.71672 -1.306634,3.6947839 -3.6947823,3.6947839 -0.735748,0 -1.419214,-0.213093 -1.994142,-0.582958 0.104535,0.01207 0.205036,0.01606 0.313594,0.01606 0.607074,0 1.165929,-0.205036 1.612198,-0.554816 -0.570905,-0.01207 -1.04934,-0.385963 -1.214178,-0.9005859 0.08041,0.01207 0.16082,0.02009 0.245257,0.02009 0.116589,0 0.233188,-0.01609 0.341736,-0.04422 -0.595025,-0.120623 -1.041309,-0.643273 -1.041309,-1.274482 v -0.01606 c 0.172871,0.09649 0.373911,0.156796 0.586979,0.164829 -0.349782,-0.233193 -0.578937,-0.6312091 -0.578937,-1.0815011 0,-0.241223 0.06432,-0.46235 0.176897,-0.655329 0.639251,0.788005 1.600144,1.3026111 2.6776093,1.3589081 -0.02007,-0.09649 -0.03215,-0.196993 -0.03215,-0.2975071 0,-0.715646 0.578945,-1.298601 1.298601,-1.298601 0.373901,0 0.711613,0.156796 0.948824,0.410083 0.293482,-0.05629 0.574914,-0.16484 0.824189,-0.313592 -0.0965,0.301539 -0.301532,0.554826 -0.570899,0.715634 0.26133,-0.02812 0.514618,-0.100512 0.747797,-0.201015 -0.176869,0.257299 -0.398007,0.486455 -0.651296,0.671405 z"
        style="stroke-width:0.01237543" />
    <path
        style="fill:none;stroke:#000000;stroke-width:1.3229146;stroke-linecap:round;stroke-linejoin:round"
        d="M 3.3401387,12.270339 H 12.271259" />
    <!-- 
    <path
        d="m 4.5724047,10.929189 c 0,0 0.06896,-0.314166 0.222215,-0.467417 l 0.344815,-0.329491 -1.670439,-0.01533 c 0,0 -0.52468,0.05528 -0.85417,0.438408 -0.582514,0.64339 -0.331512,1.416738 -0.187939,1.70711 0.517991,0.633439 0.904183,0.582356 0.904183,0.582356 h 2.9884 c 0,0 0.314537,0.0022 0.804941,-0.380906 0.183901,-0.168577 0.352107,-0.37769 0.382757,-0.714842 l 0.0077,-0.421441 -0.899188,-0.01425 c 0,0 0.201895,0.236465 0.10994,0.443355 -0.08429,0.283515 -0.459752,0.283515 -0.459752,0.283515 l -2.842814,-0.0077 c 0,0 -0.260527,0.03831 -0.452091,-0.206889 -0.183902,-0.314165 0.04597,-0.666645 0.04597,-0.666645 0.160914,-0.222214 0.45209,-0.229875 0.45209,-0.229875 z"
        style="fill-opacity:1;stroke-width:0.17164148px;stroke-linecap:butt;stroke-linejoin:miter;stroke-opacity:1" />
    <path
        style="fill-opacity:1;stroke-width:0.17164148px;stroke-linecap:butt;stroke-linejoin:miter;stroke-opacity:1"
        d="m 6.7804247,11.97204 c 0,0 -0.06896,0.314165 -0.222214,0.467417 l -0.344815,0.329491 1.670439,0.01533 c 0,0 0.524679,-0.05528 0.8541693,-0.438408 0.582515,-0.643391 0.331513,-1.416739 0.18794,-1.70711 C 9.4079527,10.005321 9.0217607,10.056404 9.0217607,10.056404 h -2.988401 c 0,0 -0.314536,-0.0022 -0.80494,0.380906 -0.183901,0.168577 -0.352107,0.377689 -0.382757,0.714842 l -0.0077,0.421441 0.899188,0.01425 c 0,0 -0.201896,-0.236466 -0.109941,-0.443355 0.08429,-0.283515 0.459753,-0.283515 0.459753,-0.283515 l 2.842813,0.0077 c 0,0 0.260528,-0.03831 0.452092,0.206889 0.1839023,0.314165 -0.04597,0.666644 -0.04597,0.666644 -0.160914,0.222215 -0.45209,0.229876 -0.45209,0.229876 z"
        />
    -->
    <path
        d="m 1.6361987,1.1082787 c -0.29247,0 -0.52792,0.23712 -0.52792,0.53168 V 13.971129 c 0,0.29448 0.23545,0.53155 0.52792,0.53155 H 13.974779 c 0.29263,0 0.52811,-0.23707 0.52811,-0.53155 V 1.6399587 c 0,-0.29445 -0.23548,-0.53157 -0.52811,-0.53157 H 1.6361987 Z"
        style="fill:none;fill-rule:evenodd;stroke:#000000;stroke-width:0.82682288;stroke-linecap:round;stroke-linejoin:round"
        />
    <path
        style="fill:none;stroke:#000000;stroke-width:1.32291102;stroke-linecap:round;stroke-linejoin:round"
        d="M 3.3399487,3.3407487 H 12.271359" />
    <path
        style="fill:none;stroke:#000000;stroke-width:1.32293558;stroke-linecap:round;stroke-linejoin:round"
        d="m 3.3399487,6.3473587 2.86792,-0.0453" />
    <path
        style="fill:none;stroke:#000000;stroke-width:1.32293558;stroke-linecap:round;stroke-linejoin:round"
        d="m 3.3399487,9.3088987 h 2.84082" />
</svg>