<?xml version="1.0" encoding="UTF-8" standalone="no"?>
<svg
   xmlns:dc="http://purl.org/dc/elements/1.1/"
   xmlns:cc="http://creativecommons.org/ns#"
   xmlns:rdf="http://www.w3.org/1999/02/22-rdf-syntax-ns#"
   xmlns:svg="http://www.w3.org/2000/svg"
   xmlns="http://www.w3.org/2000/svg"
   xml:space="preserve"
   enable-background="new 0 0 50 50"
   width="10"
   height="10"
   viewBox="0 0 15 15"
   y="0px"
   x="0px"
   id="Layer_1"
   version="1.1"><metadata
   id="metadata13"><rdf:RDF><cc:Work
       rdf:about=""><dc:format>image/svg+xml</dc:format><dc:type
         rdf:resource="http://purl.org/dc/dcmitype/StillImage" /><dc:title></dc:title></cc:Work></rdf:RDF></metadata><defs
   id="defs11" />
<path
   style="stroke:#000000;stroke-miterlimit:10"
   id="path2"
   d="m 17.876,9.358 c 0,4.799 -3.89,8.688 -8.688,8.688 v 0 C 4.39,18.046 0.5,14.157 0.5,9.358 V 9.188 C 0.5,4.389 4.39,0.5 9.188,0.5 v 0 c 4.799,0 8.688,3.89 8.688,8.688 z"
   stroke-miterlimit="10" />
<path
   style="fill:#ffffff;stroke:#ffffff;stroke-miterlimit:10"
   id="path4"
   d="m 11.444,6.234 c 0,1.246 -1.011,2.258 -2.257,2.258 v 0 C 7.94,8.492 6.93,7.48 6.93,6.234 V 5.978 c 0,-1.246 1.01,-2.257 2.257,-2.257 v 0 c 1.246,0 2.257,1.011 2.257,2.257 z"
   stroke-miterlimit="10" />
<path
   style="fill:#ffffff;stroke:#ffffff;stroke-miterlimit:10"
   id="path6"
   d="m 13.617,13.644 c 0,0 0.494,0 -4.43,0 -1.602,0 -4.429,0.134 -4.429,0 0,-2.657 1.983,-4.812 4.429,-4.812 2.448,0 4.43,2.155 4.43,4.812 z"
   stroke-miterlimit="10" />
</svg>