<?xml version="1.0" encoding="UTF-8" standalone="no"?>
<svg
   xmlns:dc="http://purl.org/dc/elements/1.1/"
   xmlns:cc="http://creativecommons.org/ns#"
   xmlns:rdf="http://www.w3.org/1999/02/22-rdf-syntax-ns#"
   xmlns:svg="http://www.w3.org/2000/svg"
   xmlns="http://www.w3.org/2000/svg"
   width="10"
   height="10"
   viewBox="0 0 15 15"
   version="1.1"
   id="svg-website">
  <title
     id="title-website">website</title>
  <defs
     id="defs-website" />
  <metadata
     id="metadata-website">
    <rdf:RDF>
      <cc:Work
         rdf:about="">
        <dc:format>image/svg+xml</dc:format>
        <dc:type
           rdf:resource="http://purl.org/dc/dcmitype/StillImage" />
        <dc:title>website</dc:title>
      </cc:Work>
    </rdf:RDF>
  </metadata>
  <path
    d="M 6.12904,0 C 3.27865,0 0.85131,1.83551 0.04358,4.36517 H 0.94541 C 1.03911,4.11514 1.15112,3.87422 1.28075,3.64332 H 3.01621 C 2.94051,3.87944 2.8783,4.12096 2.82675,4.36517 h 0.8791 C 3.76725,4.11907 3.84047,3.87739 3.92751,3.64332 H 5.60234 V 4.36517 H 6.45113 V 3.64332 h 1.80934 c 0.0974,0.23428 0.17917,0.47554 0.24819,0.72185 h 0.8791 C 9.32866,4.1207 9.25995,3.87965 9.17556,3.64332 h 1.80177 c 0.12966,0.23094 0.24165,0.47177 0.33535,0.72185 h 0.89993 C 11.40488,1.83552 8.97943,0 6.12904,0 Z m 1.28075,0.99846 c 1.18805,0.27318 2.22565,0.91382 2.97643,1.79608 H 8.8118 C 8.46018,2.11427 7.99429,1.50031 7.40979,0.99846 Z M 4.6001,1.06096 C 4.07393,1.54937 3.65891,2.14073 3.34966,2.79452 H 1.87187 C 2.56995,1.97418 3.51579,1.36283 4.6001,1.06096 Z M 6.45113,1.33378 C 7.01073,1.71684 7.46227,2.222 7.82092,2.79452 H 6.45113 Z m -0.84879,0.006 V 2.79483 H 4.32349 C 4.65204,2.221 5.07147,1.71711 5.60234,1.33978 Z M 0.29745,5.18582 c -0.0845,0 -0.15501,0.0191 -0.21219,0.0587 -0.0572,0.0397 -0.0853,0.0891 -0.0853,0.14589 0,0.0425 0.0122,0.10137 0.0398,0.17809 l 0.45091,1.29591 c 0.0137,0.0387 0.0296,0.0824 0.0474,0.12883 0.0178,0.0464 0.0427,0.0877 0.072,0.12315 0.0293,0.0355 0.0691,0.0627 0.11936,0.0834 0.0502,0.0206 0.11332,0.0303 0.18946,0.0303 0.0944,0 0.16859,-0.0171 0.22546,-0.0512 0.0569,-0.034 0.0975,-0.0706 0.11936,-0.11178 0.0219,-0.0411 0.0491,-0.10453 0.0834,-0.19135 L 1.75066,5.73899 2.15232,6.88144 c 0.0334,0.0846 0.0601,0.14711 0.0815,0.18757 0.0214,0.0404 0.0606,0.0782 0.11746,0.11178 0.0569,0.0335 0.13253,0.0493 0.22736,0.0493 0.0997,0 0.17781,-0.0164 0.23303,-0.0512 0.0552,-0.0348 0.0939,-0.0739 0.11557,-0.11746 0.0217,-0.0435 0.0471,-0.10988 0.0777,-0.19704 L 3.45586,5.56848 C 3.48376,5.48708 3.49756,5.42825 3.49756,5.39039 3.49755,5.33259 3.46826,5.28367 3.41036,5.2445 3.35246,5.2053 3.28302,5.1858 3.20006,5.1858 3.11686,5.1858 3.05265,5.2005 3.0087,5.2313 2.9647,5.262 2.9345,5.2955 2.9178,5.33171 2.901,5.36801 2.8837,5.41591 2.8666,5.47381 L 2.5483,6.57647 2.19212,5.54391 C 2.15882,5.45721 2.13182,5.3949 2.11062,5.35445 2.08942,5.31405 2.04862,5.27475 1.99126,5.23888 1.93396,5.20298 1.85394,5.18578 1.75064,5.18578 c -0.10157,0 -0.18092,0.0166 -0.24061,0.0512 -0.0597,0.0346 -0.10233,0.0751 -0.12694,0.11936 -0.0246,0.0443 -0.0515,0.10588 -0.0815,0.18757 L 0.9473,6.57647 0.62712,5.46623 C 0.60202,5.38203 0.56962,5.31505 0.53052,5.26351 0.49142,5.21201 0.41412,5.18581 0.29748,5.18581 Z m 4.36328,0 c -0.0845,0 -0.15502,0.0191 -0.2122,0.0587 -0.0572,0.0397 -0.0853,0.0891 -0.0853,0.14589 0,0.0425 0.0141,0.10137 0.0417,0.17809 l 0.45092,1.29591 c 0.0137,0.0387 0.0295,0.0824 0.0474,0.12883 0.0178,0.0464 0.0408,0.0877 0.0701,0.12315 0.0293,0.0355 0.0691,0.0627 0.11936,0.0834 0.0502,0.0206 0.11333,0.0303 0.18946,0.0303 0.0944,0 0.17049,-0.0171 0.22736,-0.0512 0.0569,-0.034 0.0956,-0.0706 0.11746,-0.11178 0.0219,-0.0411 0.0491,-0.10453 0.0834,-0.19135 L 6.11394,5.73899 6.51559,6.88144 c 0.0334,0.0846 0.0601,0.14711 0.0815,0.18757 0.0214,0.0404 0.0606,0.0782 0.11746,0.11178 0.0569,0.0335 0.13253,0.0493 0.22736,0.0493 0.0997,0 0.17781,-0.0164 0.23303,-0.0512 0.0552,-0.0348 0.0939,-0.0739 0.11557,-0.11746 0.0217,-0.0435 0.0471,-0.10988 0.0777,-0.19704 L 7.81913,5.56848 c 0.0279,-0.0814 0.0417,-0.14023 0.0417,-0.17809 0,-0.0578 -0.0293,-0.10672 -0.0872,-0.14589 -0.0579,-0.0392 -0.12734,-0.0587 -0.2103,-0.0587 -0.0832,0 -0.1474,0.0147 -0.19136,0.0455 -0.044,0.0307 -0.0741,0.0642 -0.0909,0.10041 -0.0168,0.0363 -0.0341,0.0842 -0.0512,0.1421 L 6.91157,6.57647 6.55539,5.54391 C 6.52209,5.45721 6.49509,5.3949 6.47389,5.35445 6.45269,5.31405 6.41379,5.27475 6.35642,5.23888 6.29912,5.20298 6.21911,5.18578 6.11581,5.18578 c -0.10157,0 -0.18282,0.0166 -0.24251,0.0512 -0.0597,0.0346 -0.10233,0.0751 -0.12694,0.11936 -0.0246,0.0443 -0.0515,0.10588 -0.0815,0.18757 L 5.31057,6.57647 4.99039,5.46623 C 4.96539,5.38203 4.93469,5.31505 4.89569,5.26351 4.85659,5.21201 4.7774,5.18581 4.66076,5.18581 Z m 4.36327,0 c -0.0845,0 -0.15502,0.0191 -0.2122,0.0587 -0.0572,0.0397 -0.0853,0.0891 -0.0853,0.14589 0,0.0425 0.0141,0.10137 0.0417,0.17809 l 0.45092,1.29591 c 0.0137,0.0387 0.0295,0.0824 0.0474,0.12883 0.0178,0.0464 0.0408,0.0877 0.0701,0.12315 0.0293,0.0355 0.0691,0.0627 0.11936,0.0834 0.0502,0.0206 0.11332,0.0303 0.18946,0.0303 0.0944,0 0.17048,-0.0171 0.22735,-0.0512 0.0569,-0.034 0.0956,-0.0706 0.11746,-0.11178 0.0219,-0.0411 0.051,-0.10453 0.0853,-0.19135 l 0.40166,-1.13677 0.40165,1.14245 c 0.0334,0.0846 0.0601,0.14711 0.0815,0.18757 0.0214,0.0404 0.0606,0.0782 0.11747,0.11178 0.0569,0.0335 0.13253,0.0493 0.22735,0.0493 0.0997,0 0.17781,-0.0164 0.23303,-0.0512 0.0552,-0.0348 0.0939,-0.0739 0.11558,-0.11746 0.0217,-0.0435 0.0471,-0.10988 0.0777,-0.19704 l 0.45092,-1.29591 c 0.0279,-0.0814 0.0417,-0.14023 0.0417,-0.17809 0,-0.0578 -0.0274,-0.10672 -0.0853,-0.14589 -0.0579,-0.0392 -0.12923,-0.0587 -0.21219,-0.0587 -0.0832,0 -0.1474,0.0147 -0.19136,0.0455 -0.044,0.0307 -0.0741,0.0642 -0.0909,0.10041 -0.0168,0.0363 -0.0341,0.0842 -0.0512,0.1421 l -0.3164,1.10266 -0.35808,-1.03256 c -0.0333,-0.0867 -0.0603,-0.14901 -0.0815,-0.18946 -0.0211,-0.0404 -0.0601,-0.0797 -0.11746,-0.11557 -0.0573,-0.0359 -0.13732,-0.0531 -0.24062,-0.0531 -0.10157,0 -0.18282,0.0166 -0.24251,0.0512 -0.0597,0.0346 -0.10233,0.0751 -0.12694,0.11936 -0.0246,0.0443 -0.0515,0.10588 -0.0815,0.18757 L 9.67385,6.57647 9.35556,5.46623 C 9.33056,5.38203 9.29806,5.31505 9.25896,5.26351 9.21986,5.21201 9.14067,5.18581 9.02403,5.18581 Z M 0.01137,7.93868 c 0.7711,2.58679 3.2254,4.47695 6.11767,4.47695 2.89231,0 5.34661,-1.89011 6.11768,-4.47695 h -0.89615 c -0.0855,0.24396 -0.18758,0.47983 -0.30693,0.70669 H 9.22482 C 9.30222,8.41407 9.36617,8.17764 9.41997,7.93868 H 8.55413 C 8.49373,8.18031 8.42127,8.4164 8.33247,8.64537 H 6.45113 V 7.93868 H 5.60234 V 8.64537 H 3.88394 C 3.80604,8.41725 3.73898,8.18091 3.68311,7.93868 H 2.81159 c 0.0488,0.23924 0.10842,0.47541 0.1762,0.70669 H 1.21444 C 1.0951,8.41851 0.99108,8.18264 0.90562,7.93868 Z m 1.76009,1.55547 h 1.52136 c 0.31051,0.71824 0.72219,1.35969 1.25233,1.84724 C 3.429,11.01854 2.46702,10.3634 1.77146,9.49415 Z m 2.46677,0 h 1.36411 v 1.58578 C 5.05111,10.7305 4.59007,10.17343 4.23823,9.49415 Z m 2.2129,0 H 7.90997 C 7.53959,10.11328 7.05793,10.6489 6.45113,11.04014 Z m 2.43456,0 h 1.60094 c -0.76609,0.95737 -1.85699,1.65443 -3.11852,1.93439 0.64733,-0.52343 1.1503,-1.18987 1.51758,-1.93439 z"
    style="color:#000000;font-style:normal;font-variant:normal;font-weight:normal;font-stretch:normal;font-size:medium;line-height:normal;font-family:Sans;-inkscape-font-specification:Sans;text-indent:0;text-align:start;text-decoration:none;text-decoration-line:none;letter-spacing:normal;word-spacing:normal;text-transform:none;writing-mode:lr-tb;direction:ltr;baseline-shift:baseline;text-anchor:start;display:inline;overflow:visible;visibility:visible;fill:#000000;fill-opacity:1;stroke:none;stroke-width:0.64257872;marker:none;enable-background:accumulate" 
  />
</svg>